# xmcd
#
# Track frame offsets:
#	150
#	23025
#	47625
#	69000
#	89625
#	125625
#	140175
#	162825
#	196950
#	225975
#	252525
#	279450
#	311025
#
# Disc length: 4257 seconds
#
# Revision: 0
# Processed by: cddbd v1.5.2PL0 Copyright (c) Steve Scherf et al.
# Submitted via: EasyCDDAExtractor 12.0.0.1
#
DISCID=b7109f0d
DTITLE=Johnny Winter - Live 2008-11-01 Luebeck, Schuppen 6, Germany (bootleg)
DYEAR=2008
DGENRE=Blues
TTITLE0=Hide Away
TTITLE1=Sugar Coated Love
TTITLE2=Boogie Real Low
TTITLE3=Miss Ann
TTITLE4=Blackjack
TTITLE5=Tore Down
TTITLE6=Lone Wolf
TTITLE7=Red House
TTITLE8=Johnny Guitar
TTITLE9=It's All Over Now (with Eric Sardinas, guitar)
TTITLE10=Mojo Boogie
TTITLE11=Highway 61 Revisited
TTITLE12=audience
EXTD=
EXTT0=
EXTT1=
EXTT2=
EXTT3=
EXTT4=
EXTT5=
EXTT6=
EXTT7=
EXTT8=
EXTT9=
EXTT10=
EXTT11=
EXTT12=
PLAYORDER=
